# xmcd
#
# Track frame offsets:
#	150
#	16955
#	18889
#	32788
#	43695
#	52924
#	62641
#	71680
#	75856
#	86804
#	90882
#	100694
#	108441
#	120794
#	129294
#	138213
#	145029
#	151392
#	159090
#	164421
#	166893
#	172323
#	177945
#	185418
#	194634
#	200607
#	205029
#
# Disc length: 2832 seconds
# Revision: 0
# Processed by: cddbd v1.5.2PL0 Copyright (c) Steve Scherf et al.
# Submitted via: dBpowerAMP V12.0
#
DISCID=550b0e1b
DTITLE=Ensemble Instrumental Jean-Marie Leclair - Concerts Italiens - Torelli, Bononchini and others  [Paillard]
DYEAR=2019
DGENRE=Orchestral
TTITLE0=Sinfonia a 4 in C major: 1. Allegro
TTITLE1=Sinfonia a 4 in C major: 2. Adagio
TTITLE2=Sinfonia a 4 in C major: 3. Presto
TTITLE3=Sinfonia a in D minor 'Con due trombe': 1. Allegro
TTITLE4=Sinfonia in D minor 'Con due trombe': 2. Largo - Allegro
TTITLE5=Sinfonia in D minor 'Con due trombe': 3. Vivace
TTITLE6=Sinfonia in A minor: 1. Allegro
TTITLE7=Sinfonia in A minor: 2. Largo - Adagio
TTITLE8=Sinfonia in A minor: 3. Allegro
TTITLE9=Trumpet sonata No. 5 in D major: 1. Allegro
TTITLE10=Trumpet sonata No. 5 in D major: 2. Grave - Allegro
TTITLE11=Trumpet sonata No. 5 in D major: 3. Allegro
TTITLE12=Sonata in D major for 2 trumpets, strings and continuo: 1. Allegro
TTITLE13=Sonata in D major for 2 trumpets, strings and continuo: 2. Adagio
TTITLE14=Sonata in D major for 2 trumpets, strings and continuo: 3. Allegro
TTITLE15=Sinfonia a 6 con tromba in D major, Op. 3 No. 8: 1. Adagio
TTITLE16=Sinfonia a 6 con tromba in D major, Op. 3 No. 8: 2. Allegro
TTITLE17=Sinfonia a 6 con tromba in D major, Op. 3 No. 8: 3. Adagio
TTITLE18=Sinfonia a 6 con tromba in D major, Op. 3 No. 8: 4. Vivace
TTITLE19=Sinfonia a 6 con tromba in D major, Op. 3 No. 8: 5. Adagio
TTITLE20=Sinfonia a 6 con tromba in D major, Op. 3 No. 8: 6. Allegro
TTITLE21=Sinfonia a 7 con tromba in D major, Op. 3 No. 10: 1. (Lent)
TTITLE22=Sinfonia a 7 con tromba in D major, Op. 3 No. 10: 2. (Rapide)
TTITLE23=Sinfonia a 7 con tromba in D major, Op. 3 No. 10: 3. Grave
TTITLE24=Sinfonia a 7 con tromba in D major, Op. 3 No. 10: 4. (Rapide)
TTITLE25=Sinfonia a 7 con tromba in D major, Op. 3 No. 10: 5. Adagio
TTITLE26=Sinfonia a 7 con tromba in D major, Op. 3 No. 10: 6. Largo - Allegro
EXTD=
EXTT0=
EXTT1=
EXTT2=
EXTT3=
EXTT4=
EXTT5=
EXTT6=
EXTT7=
EXTT8=
EXTT9=
EXTT10=
EXTT11=
EXTT12=
EXTT13=
EXTT14=
EXTT15=
EXTT16=
EXTT17=
EXTT18=
EXTT19=
EXTT20=
EXTT21=
EXTT22=
EXTT23=
EXTT24=
EXTT25=
EXTT26=
PLAYORDER=
